<svg width="36" height="36" viewBox="0 0 36 36" fill="none" xmlns="http://www.w3.org/2000/svg">
<path d="M18 36C12.9667 36 8.70833 35.225 5.225 33.675C1.74167 32.125 0 30.2333 0 28V8C0 5.8 1.75833 3.91667 5.275 2.35C8.79167 0.783333 13.0333 0 18 0C22.9667 0 27.2083 0.783333 30.725 2.35C34.2417 3.91667 36 5.8 36 8V28C36 30.2333 34.2583 32.125 30.775 33.675C27.2917 35.225 23.0333 36 18 36ZM18 12.05C20.9667 12.05 23.95 11.625 26.95 10.775C29.95 9.925 31.6333 9.01667 32 8.05C31.6333 7.08333 29.9583 6.16667 26.975 5.3C23.9917 4.43333 21 4 18 4C14.9667 4 11.9917 4.425 9.075 5.275C6.15833 6.125 4.46667 7.05 4 8.05C4.46667 9.05 6.15833 9.96667 9.075 10.8C11.9917 11.6333 14.9667 12.05 18 12.05ZM18 22C19.4 22 20.75 21.9333 22.05 21.8C23.35 21.6667 24.5917 21.475 25.775 21.225C26.9583 20.975 28.075 20.6667 29.125 20.3C30.175 19.9333 31.1333 19.5167 32 19.05V13.05C31.1333 13.5167 30.175 13.9333 29.125 14.3C28.075 14.6667 26.9583 14.975 25.775 15.225C24.5917 15.475 23.35 15.6667 22.05 15.8C20.75 15.9333 19.4 16 18 16C16.6 16 15.2333 15.9333 13.9 15.8C12.5667 15.6667 11.3083 15.475 10.125 15.225C8.94167 14.975 7.83333 14.6667 6.8 14.3C5.76667 13.9333 4.83333 13.5167 4 13.05V19.05C4.83333 19.5167 5.76667 19.9333 6.8 20.3C7.83333 20.6667 8.94167 20.975 10.125 21.225C11.3083 21.475 12.5667 21.6667 13.9 21.8C15.2333 21.9333 16.6 22 18 22ZM18 32C19.5333 32 21.0917 31.8833 22.675 31.65C24.2583 31.4167 25.7167 31.1083 27.05 30.725C28.3833 30.3417 29.5 29.9083 30.4 29.425C31.3 28.9417 31.8333 28.45 32 27.95V23.05C31.1333 23.5167 30.175 23.9333 29.125 24.3C28.075 24.6667 26.9583 24.975 25.775 25.225C24.5917 25.475 23.35 25.6667 22.05 25.8C20.75 25.9333 19.4 26 18 26C16.6 26 15.2333 25.9333 13.9 25.8C12.5667 25.6667 11.3083 25.475 10.125 25.225C8.94167 24.975 7.83333 24.6667 6.8 24.3C5.76667 23.9333 4.83333 23.5167 4 23.05V28C4.16667 28.5 4.69167 28.9833 5.575 29.45C6.45833 29.9167 7.56667 30.3417 8.9 30.725C10.2333 31.1083 11.7 31.4167 13.3 31.65C14.9 31.8833 16.4667 32 18 32Z" fill="#D3E4FE"/>
</svg>
