<svg width="54" height="67" viewBox="0 0 54 67" fill="none" xmlns="http://www.w3.org/2000/svg">
<path d="M26.6667 66.6667C18.9444 64.7222 12.5694 60.2917 7.54167 53.375C2.51389 46.4583 0 38.7778 0 30.3333V10L26.6667 0L53.3333 10V30.3333C53.3333 38.7778 50.8194 46.4583 45.7917 53.375C40.7639 60.2917 34.3889 64.7222 26.6667 66.6667ZM26.6667 59.6667C32.0556 58 36.5556 54.7083 40.1667 49.7917C43.7778 44.875 45.8889 39.3889 46.5 33.3333H26.6667V7.08333L6.66667 14.5833V30.3333C6.66667 30.9444 6.66667 31.4444 6.66667 31.8333C6.66667 32.2222 6.72222 32.7222 6.83333 33.3333H26.6667V59.6667Z" fill="white"/>
</svg>
