<svg width="115" height="115" viewBox="0 0 115 115" fill="none" xmlns="http://www.w3.org/2000/svg">
<path d="M57.1052 9.92485C57.3309 9.72878 57.6665 9.72878 57.8922 9.92485L69.4484 19.9642C69.5712 20.0709 69.732 20.1231 69.894 20.109L85.1441 18.7795C85.442 18.7536 85.7135 18.9508 85.7808 19.2421L89.229 34.1567C89.2656 34.3151 89.365 34.4519 89.5044 34.5357L102.623 42.424C102.88 42.5781 102.983 42.8972 102.867 43.1725L96.8897 57.2654C96.8262 57.4151 96.8262 57.5842 96.8897 57.7339L102.867 71.8269C102.983 72.1021 102.88 72.4213 102.623 72.5753L89.5044 80.4636C89.365 80.5474 89.2656 80.6842 89.229 80.8427L85.7808 95.7572C85.7135 96.0485 85.442 96.2458 85.1441 96.2198L69.894 94.8904C69.732 94.8762 69.5712 94.9285 69.4484 95.0352L57.8922 105.075C57.6665 105.271 57.3309 105.271 57.1052 105.075L45.549 95.0352C45.4262 94.9285 45.2654 94.8762 45.1034 94.8904L29.8533 96.2198C29.5554 96.2458 29.2839 96.0485 29.2166 95.7572L25.7684 80.8427C25.7318 80.6842 25.6324 80.5474 25.493 80.4636L12.3739 72.5753C12.1177 72.4213 12.014 72.1021 12.1308 71.8269L18.1077 57.7339C18.1712 57.5842 18.1712 57.4151 18.1077 57.2654L12.1308 43.1725C12.014 42.8972 12.1177 42.5781 12.3739 42.424L25.493 34.5357C25.6324 34.4519 25.7318 34.3151 25.7684 34.1567L29.2166 19.2421C29.2839 18.9508 29.5554 18.7536 29.8533 18.7795L45.1034 20.109C45.2654 20.1231 45.4262 20.0709 45.549 19.9642L57.1052 9.92485Z" fill="#A9DEB4" stroke="#1C4D27" stroke-width="1.5"/>
<path d="M43.125 62.292L52.7083 71.8753L76.6667 47.917" stroke="#1C4D27" stroke-width="4" stroke-linecap="round" stroke-linejoin="round"/>
</svg>
