<svg width="175" height="29" viewBox="0 0 175 29" fill="none" xmlns="http://www.w3.org/2000/svg">
<path d="M14.2095 0.00512462C22.2554 -0.205393 28.9537 6.09616 29.1816 14.09C29.4091 22.0838 23.0799 28.7514 15.0349 28.9932C6.96765 29.2357 0.234179 22.926 0.00595193 14.91C-0.222275 6.89411 6.14138 0.216211 14.2095 0.00512462ZM9.12438 26.2789C9.55093 26.2307 9.98534 26.1996 10.3988 26.0821C15.1642 24.7279 16.5059 18.6655 12.6123 15.5465C11.4728 14.6336 9.9579 14.0967 8.48285 14.2226C5.2215 14.4411 2.70625 17.0328 2.7409 20.274C2.75287 21.3917 4.85539 23.8373 5.74588 24.5513C6.36611 25.0487 8.19037 26.3739 8.96371 26.2997C9.01755 26.2949 9.07112 26.2879 9.12438 26.2789Z" fill="#4E61F6"/>
<path d="M7.9184 17.789C9.55644 17.5736 11.0599 18.7189 11.2757 20.3466C11.4916 21.9742 10.338 23.4674 8.69977 23.6809C7.0628 23.8943 5.56149 22.7493 5.34581 21.1229C5.13012 19.4966 6.28167 18.0042 7.9184 17.789Z" fill="#4E61F6"/>
<path d="M45.485 7.93203C46.7201 7.93203 47.7353 8.21309 48.5305 8.7752C49.3342 9.3288 49.9306 10.0953 50.3197 11.0748C50.7173 12.0457 50.9161 13.1614 50.9161 14.4219C50.9161 15.7846 50.6835 17.0111 50.2182 18.1013C49.7614 19.1914 49.0846 20.0559 48.1879 20.6947C47.2912 21.3334 46.1787 21.6528 44.8506 21.6528C44.1654 21.6528 43.5986 21.5719 43.1502 21.4101C42.7103 21.2568 42.355 21.0737 42.0843 20.8607C41.822 20.6393 41.6148 20.4392 41.4625 20.2603H41.4118V25.7026C41.4118 25.907 41.3695 26.0646 41.2849 26.1753C40.9296 26.6437 40.4093 27.1505 39.7241 27.6956C39.6056 27.7808 39.4999 27.8233 39.4068 27.8233C39.3053 27.8233 39.1996 27.7808 39.0896 27.6956C38.7258 27.4145 38.4171 27.1505 38.1633 26.9035C37.9179 26.6565 37.7065 26.4138 37.5288 26.1753C37.4442 26.0646 37.4019 25.907 37.4019 25.7026V9.95054C37.4019 9.74613 37.4442 9.58857 37.5288 9.47785C37.7065 9.23938 37.9179 8.99664 38.1633 8.74965C38.4171 8.50266 38.7258 8.23864 39.0896 7.95758C39.1996 7.87241 39.3138 7.82982 39.4322 7.82982C39.5422 7.82982 39.6564 7.87241 39.7748 7.95758C40.1301 8.23864 40.4347 8.50692 40.6885 8.76243C40.9422 9.01794 41.1664 9.28196 41.361 9.5545H41.4244C41.5683 9.37565 41.7882 9.15847 42.0843 8.90296C42.3804 8.64745 42.7991 8.42175 43.3405 8.22586C43.8904 8.02997 44.6053 7.93203 45.485 7.93203ZM43.9243 18.3951C44.8379 18.3951 45.5443 18.0757 46.0434 17.4369C46.551 16.7896 46.8047 15.857 46.8047 14.6391C46.8047 12.3395 45.8657 11.1898 43.9877 11.1898C43.1925 11.1898 42.6046 11.3558 42.2239 11.688C41.8432 12.0116 41.5725 12.3566 41.4118 12.7228V15.4951C41.4118 16.3212 41.6232 17.0111 42.0462 17.5647C42.4692 18.1183 43.0952 18.3951 43.9243 18.3951Z" fill="#4E61F6"/>
<path d="M59.8748 21.6528C57.743 21.6528 56.0553 21.0822 54.8117 19.9409C53.5682 18.7996 52.9464 17.1005 52.9464 14.8435C52.9464 12.5269 53.5893 10.798 54.8752 9.65671C56.1695 8.50692 57.8953 7.93203 60.0525 7.93203C62.1335 7.93203 63.8001 8.4984 65.0521 9.63116C66.3041 10.7554 66.9301 12.4162 66.9301 14.6136C66.9301 16.9046 66.3041 18.6506 65.0521 19.8515C63.8001 21.0524 62.0743 21.6528 59.8748 21.6528ZM60.0017 18.5612C60.9323 18.5612 61.6344 18.2716 62.1081 17.6924C62.5819 17.1048 62.8188 16.104 62.8188 14.6902C62.8188 13.3445 62.5777 12.3992 62.0955 11.8541C61.6217 11.3005 60.9153 11.0237 59.9763 11.0237C59.0712 11.0237 58.3563 11.3218 57.8318 11.918C57.3158 12.5056 57.0578 13.4638 57.0578 14.7924C57.0578 16.1807 57.3031 17.1559 57.7938 17.718C58.2929 18.2801 59.0289 18.5612 60.0017 18.5612Z" fill="#4E61F6"/>
<path d="M76.1299 7.93203C77.1366 7.93203 77.8684 8.0172 78.3252 8.18753C78.782 8.34936 79.0696 8.47711 79.1881 8.5708C79.3742 8.69003 79.518 8.84334 79.6195 9.03071C79.6787 9.1244 79.7464 9.28622 79.8225 9.51618C79.8987 9.74613 79.9536 9.99738 79.9875 10.2699C80.0298 10.4829 80.034 10.6362 80.0002 10.7298C79.9663 10.815 79.8606 10.9215 79.6829 11.0492C79.4799 11.1855 79.2557 11.309 79.0104 11.4197C78.7735 11.5219 78.579 11.5943 78.4267 11.6369C78.2998 11.671 78.2025 11.6795 78.1348 11.6624C78.0672 11.6454 77.9741 11.5943 77.8557 11.5091C77.7203 11.4155 77.53 11.3133 77.2846 11.2025C77.0393 11.0833 76.7009 11.0237 76.2695 11.0237C75.7196 11.0237 75.1951 11.1599 74.696 11.4325C74.2054 11.705 73.8035 12.1138 73.4905 12.6589C73.186 13.204 73.0337 13.8854 73.0337 14.703C73.0337 15.9294 73.3509 16.8791 73.9854 17.5519C74.6283 18.2247 75.487 18.5612 76.5614 18.5612C77.1112 18.5612 77.568 18.5058 77.9318 18.3951C78.2956 18.2758 78.5832 18.1566 78.7947 18.0374C78.9639 17.9437 79.0908 17.9224 79.1754 17.9735C79.2684 18.0161 79.3403 18.097 79.3911 18.2162L80.3174 20.3242C80.4105 20.5456 80.3597 20.7032 80.1651 20.7969C79.8521 20.9587 79.3361 21.1418 78.617 21.3462C77.898 21.5506 77.0097 21.6528 75.9523 21.6528C73.8289 21.6528 72.1328 21.0864 70.8638 19.9537C69.5949 18.8124 68.9604 17.109 68.9604 14.8435C68.9604 13.3956 69.2523 12.1564 69.836 11.1259C70.4197 10.0953 71.2487 9.30751 72.3231 8.76243C73.3975 8.20883 74.6664 7.93203 76.1299 7.93203Z" fill="#4E61F6"/>
<path d="M86.4083 20.6563C86.4083 20.9118 86.3533 21.0907 86.2434 21.1929C86.1418 21.2866 85.9642 21.3334 85.7104 21.3334H83.0964C82.8426 21.3334 82.6607 21.2866 82.5507 21.1929C82.4492 21.0907 82.3985 20.9118 82.3985 20.6563V3.37121C82.3985 3.1668 82.4408 3.00924 82.5254 2.89851C82.8807 2.43008 83.4009 1.92333 84.0862 1.37824C84.2046 1.29307 84.3103 1.25049 84.4034 1.25049C84.5134 1.25049 84.6191 1.29307 84.7206 1.37824C85.0844 1.6593 85.3889 1.92333 85.6343 2.17032C85.8881 2.41731 86.1038 2.66004 86.2814 2.89851C86.366 3.00924 86.4083 3.1668 86.4083 3.37121V13.3999H86.5606C87.8464 13.3999 88.7178 13.1699 89.1746 12.71C89.6399 12.2416 89.8725 11.5943 89.8725 10.7682V10.0783C89.8725 9.87389 89.9148 9.71632 89.9994 9.6056C90.3547 9.13717 90.875 8.63041 91.5602 8.08533C91.6786 8.00016 91.7844 7.95758 91.8774 7.95758C91.9874 7.95758 92.0932 8.00016 92.1947 8.08533C92.5584 8.36639 92.863 8.63041 93.1083 8.87741C93.3621 9.1244 93.5778 9.36713 93.7555 9.6056C93.8401 9.71632 93.8824 9.87389 93.8824 10.0783V10.7682C93.8824 11.2536 93.7851 11.7902 93.5905 12.3779C93.4044 12.9655 93.0618 13.4851 92.5627 13.9365C92.0636 14.3879 91.3529 14.6519 90.4308 14.7285V14.7924C91.1415 15.1075 91.7548 15.5249 92.2708 16.0444C92.7868 16.5639 93.2183 17.1218 93.5651 17.718C93.912 18.3057 94.1785 18.872 94.3646 19.4171C94.5591 19.9537 94.686 20.4093 94.7452 20.7841C94.8045 21.1503 94.6818 21.3334 94.3773 21.3334H91.0399C90.7523 21.3334 90.5874 21.1588 90.5451 20.8096C90.4858 20.4093 90.3547 19.9409 90.1517 19.4043C89.9571 18.8593 89.6906 18.327 89.3522 17.8074C89.0223 17.2879 88.6205 16.8578 88.1468 16.5171C87.6815 16.1679 87.1528 15.9933 86.5606 15.9933H86.4083V20.6563Z" fill="#4E61F6"/>
<path d="M103.361 21.6528C101.932 21.6528 100.688 21.4229 99.6307 20.9629C98.5732 20.4945 97.7526 19.7706 97.1689 18.7911C96.5852 17.8117 96.2934 16.5469 96.2934 14.9968C96.2934 12.6717 96.8855 10.913 98.0699 9.72058C99.2542 8.52821 100.828 7.93203 102.79 7.93203C104.068 7.93203 105.146 8.16198 106.026 8.6219C106.914 9.08181 107.587 9.71632 108.044 10.5254C108.509 11.3345 108.742 12.2586 108.742 13.2977C108.742 14.3112 108.484 15.0181 107.968 15.4184C107.452 15.8187 106.699 16.0189 105.709 16.0189H100.265C100.333 16.8961 100.65 17.5647 101.217 18.0246C101.792 18.4845 102.57 18.7145 103.552 18.7145C104.33 18.7145 104.952 18.5995 105.417 18.3695C105.891 18.1311 106.221 17.9437 106.407 17.8074C106.568 17.6882 106.749 17.6328 106.952 17.6413C107.113 17.6413 107.342 17.6754 107.638 17.7435C107.942 17.8032 108.243 17.9181 108.539 18.0885C108.75 18.1992 108.856 18.3525 108.856 18.5484C108.856 18.6591 108.835 18.8167 108.792 19.0211C108.767 19.1403 108.725 19.3149 108.665 19.5449C108.606 19.7663 108.53 19.975 108.437 20.1709C108.386 20.2646 108.306 20.354 108.196 20.4392C108.027 20.5584 107.752 20.716 107.371 20.9118C106.999 21.1077 106.487 21.2781 105.836 21.4229C105.184 21.5762 104.36 21.6528 103.361 21.6528ZM100.24 13.3999H104.376C104.808 13.3999 105.024 13.1998 105.024 12.7995C105.024 12.1948 104.833 11.688 104.453 11.2792C104.08 10.8619 103.518 10.6532 102.765 10.6532C101.944 10.6532 101.339 10.9172 100.95 11.4453C100.57 11.9733 100.333 12.6249 100.24 13.3999Z" fill="#4E61F6"/>
<path d="M116.546 21.6528C113.72 21.6528 112.307 20.1751 112.307 17.2197V11.2281H110.873C110.62 11.2281 110.442 11.177 110.34 11.0748C110.247 10.9641 110.201 10.7809 110.201 10.5254V8.95406C110.201 8.69855 110.247 8.5197 110.34 8.41749C110.442 8.30677 110.62 8.25141 110.873 8.25141H112.307V6.19457C112.307 5.99016 112.35 5.8326 112.434 5.72188C112.79 5.25345 113.31 4.74669 113.995 4.20161C114.113 4.11644 114.219 4.07385 114.312 4.07385C114.414 4.07385 114.515 4.11644 114.617 4.20161C114.981 4.48267 115.285 4.74669 115.53 4.99368C115.784 5.24067 116 5.48341 116.178 5.72188C116.262 5.8326 116.304 5.99016 116.304 6.19457V8.25141H118.551C118.804 8.25141 118.978 8.30677 119.071 8.41749C119.172 8.5197 119.223 8.69855 119.223 8.95406V10.5254C119.223 10.7809 119.172 10.9641 119.071 11.0748C118.978 11.177 118.804 11.2281 118.551 11.2281H116.304V16.5171C116.304 17.8798 116.795 18.5612 117.776 18.5612C117.929 18.5612 118.068 18.5484 118.195 18.5228C118.322 18.4888 118.432 18.4547 118.525 18.4206C118.703 18.3525 118.825 18.327 118.893 18.344C118.969 18.361 119.037 18.4547 119.096 18.625L119.832 20.6052C119.908 20.8182 119.858 20.9715 119.68 21.0651C119.553 21.1248 119.244 21.2355 118.754 21.3973C118.271 21.5676 117.535 21.6528 116.546 21.6528Z" fill="#4E61F6"/>
<path d="M125.58 21.6528C124.675 21.6528 123.922 21.5762 123.322 21.4229C122.73 21.2696 122.252 21.0864 121.888 20.8735C121.533 20.6521 121.253 20.4519 121.05 20.2731C120.898 20.1283 120.881 19.9665 121 19.7876L122.294 17.8585C122.48 17.586 122.691 17.5689 122.928 17.8074C123.174 18.0459 123.504 18.2801 123.918 18.5101C124.341 18.7315 124.866 18.8422 125.492 18.8422C126.05 18.8422 126.507 18.7485 126.862 18.5612C127.226 18.3653 127.408 18.0842 127.408 17.718C127.408 17.4625 127.327 17.2538 127.167 17.092C127.006 16.9302 126.722 16.7641 126.316 16.5938C125.91 16.4234 125.344 16.2062 124.616 15.9422C123.542 15.5504 122.73 15.0777 122.18 14.5241C121.63 13.9705 121.355 13.1614 121.355 12.0968C121.355 11.1174 121.621 10.321 122.154 9.70781C122.696 9.09459 123.385 8.64745 124.223 8.36639C125.069 8.07681 125.948 7.93203 126.862 7.93203C128.021 7.93203 128.833 8.04275 129.298 8.26419C129.772 8.47711 130.077 8.64319 130.212 8.76243C130.339 8.87315 130.428 9.0009 130.479 9.14569C130.589 9.47785 130.673 9.91647 130.732 10.4616C130.766 10.7767 130.686 10.9853 130.491 11.0876C130.39 11.1472 130.229 11.211 130.009 11.2792C129.789 11.3473 129.569 11.4069 129.349 11.458C129.129 11.5091 128.964 11.5347 128.854 11.5347C128.82 11.5347 128.782 11.5262 128.74 11.5091C128.706 11.4836 128.643 11.4282 128.55 11.3431C128.44 11.2323 128.249 11.1046 127.979 10.9598C127.716 10.815 127.353 10.7426 126.887 10.7426C126.431 10.7426 126.046 10.8193 125.733 10.9726C125.428 11.1174 125.276 11.3771 125.276 11.7519C125.276 12.1607 125.47 12.4673 125.86 12.6717C126.257 12.8761 126.909 13.1401 127.814 13.4638C128.524 13.7108 129.142 13.9833 129.666 14.2814C130.199 14.571 130.61 14.9542 130.897 15.4312C131.185 15.8996 131.329 16.5341 131.329 17.3347C131.329 18.3738 131.045 19.2127 130.479 19.8515C129.92 20.4817 129.201 20.9417 128.321 21.2312C127.45 21.5123 126.536 21.6528 125.58 21.6528Z" fill="#4E61F6"/>
<path d="M134.222 27.4784C133.909 27.4784 133.672 27.4443 133.511 27.3762C133.351 27.3166 133.215 27.2399 133.105 27.1462C132.885 26.9333 132.648 26.6352 132.395 26.252C132.335 26.1583 132.272 26.0476 132.204 25.9198C132.137 25.8006 132.103 25.6984 132.103 25.6132C132.103 25.5195 132.124 25.4343 132.166 25.3577C132.209 25.281 132.259 25.2086 132.318 25.1405C132.454 24.9616 132.619 24.7743 132.813 24.5784C133.008 24.391 133.173 24.242 133.308 24.1312C133.401 24.0546 133.477 24.0035 133.537 23.9779C133.596 23.9609 133.647 23.9524 133.689 23.9524C133.731 23.9524 133.795 23.9609 133.879 23.9779C133.964 23.995 134.091 24.0035 134.26 24.0035C134.844 24.0035 135.453 23.8119 136.087 23.4286C136.722 23.0453 137.348 22.3257 137.965 21.2696C137.322 20.6734 136.688 19.9281 136.062 19.0339C135.444 18.1311 134.886 17.1559 134.387 16.1083C133.888 15.0522 133.486 14.0003 133.181 12.9528C132.885 11.9052 132.737 10.9385 132.737 10.0527C132.737 9.86537 132.784 9.71632 132.877 9.6056C133.266 9.12014 133.82 8.61338 134.539 8.08533C134.666 8.00016 134.78 7.95758 134.882 7.95758C134.992 7.95758 135.106 8.00016 135.224 8.08533C135.614 8.36639 135.939 8.63041 136.201 8.87741C136.472 9.1244 136.701 9.36713 136.887 9.6056C136.98 9.71632 137.026 9.87389 137.026 10.0783V10.0272C137.026 10.7 137.107 11.4112 137.267 12.1607C137.428 12.9102 137.648 13.6426 137.927 14.3581C138.206 15.065 138.519 15.708 138.866 16.2871C139.213 16.8578 139.573 17.3134 139.945 17.6541H140.008C140.177 17.3305 140.364 16.8663 140.567 16.2616C140.778 15.6484 140.977 14.9713 141.163 14.2303C141.349 13.4808 141.501 12.7398 141.62 12.0074C141.738 11.2664 141.797 10.6106 141.797 10.04V10.0783C141.797 9.87389 141.84 9.71632 141.924 9.6056C142.119 9.36713 142.347 9.1244 142.61 8.87741C142.872 8.63041 143.189 8.36639 143.561 8.08533C143.68 8.00016 143.79 7.95758 143.891 7.95758C144.01 7.95758 144.12 8.00016 144.221 8.08533C144.602 8.36639 144.923 8.63041 145.186 8.87741C145.448 9.1244 145.672 9.36713 145.858 9.6056C145.943 9.71632 145.985 9.86963 145.985 10.0655C145.977 10.8406 145.828 11.8541 145.541 13.1061C145.253 14.3495 144.834 15.6995 144.285 17.1559C143.735 18.6123 143.066 20.0389 142.28 21.4356C141.104 23.5393 139.835 25.0724 138.473 26.0348C137.111 26.9972 135.694 27.4784 134.222 27.4784ZM145.985 10.04V10.0783V10.0655C145.985 10.057 145.985 10.0485 145.985 10.04ZM132.737 10.04V10.0527V10.0783V10.04Z" fill="#4E61F6"/>
<path d="M160.87 13.1955V20.6563C160.87 20.9118 160.815 21.0907 160.705 21.1929C160.603 21.2866 160.425 21.3334 160.172 21.3334H157.558C157.304 21.3334 157.122 21.2866 157.012 21.1929C156.911 21.0907 156.86 20.9118 156.86 20.6563V13.8598C156.86 12.9315 156.665 12.2544 156.276 11.8285C155.887 11.4027 155.358 11.1898 154.69 11.1898C154.022 11.1898 153.506 11.3345 153.142 11.6241C152.786 11.9137 152.512 12.2799 152.317 12.7228V20.6563C152.317 20.9118 152.262 21.0907 152.152 21.1929C152.051 21.2866 151.873 21.3334 151.619 21.3334H149.005C148.751 21.3334 148.569 21.2866 148.459 21.1929C148.358 21.0907 148.307 20.9118 148.307 20.6563V9.95054C148.307 9.74613 148.349 9.58857 148.434 9.47785C148.612 9.23938 148.823 8.99664 149.068 8.74965C149.322 8.50266 149.631 8.23864 149.995 7.95758C150.105 7.87241 150.211 7.82982 150.312 7.82982C150.405 7.82982 150.511 7.87241 150.629 7.95758C150.985 8.23864 151.289 8.50692 151.543 8.76243C151.797 9.01794 152.021 9.28196 152.215 9.5545H152.279C152.423 9.36713 152.638 9.14995 152.926 8.90296C153.214 8.64745 153.616 8.42175 154.132 8.22586C154.656 8.02997 155.324 7.93203 156.136 7.93203C156.932 7.93203 157.689 8.09385 158.408 8.41749C159.127 8.74114 159.715 9.28622 160.172 10.0527C160.637 10.8193 160.87 11.8669 160.87 13.1955Z" fill="#4E61F6"/>
<path d="M170.767 7.93203C171.774 7.93203 172.506 8.0172 172.963 8.18753C173.419 8.34936 173.707 8.47711 173.825 8.5708C174.012 8.69003 174.155 8.84334 174.257 9.03071C174.316 9.1244 174.384 9.28622 174.46 9.51618C174.536 9.74613 174.591 9.99738 174.625 10.2699C174.667 10.4829 174.671 10.6362 174.638 10.7298C174.604 10.815 174.498 10.9215 174.32 11.0492C174.117 11.1855 173.893 11.309 173.648 11.4197C173.411 11.5219 173.216 11.5943 173.064 11.6369C172.937 11.671 172.84 11.6795 172.772 11.6624C172.705 11.6454 172.612 11.5943 172.493 11.5091C172.358 11.4155 172.167 11.3133 171.922 11.2025C171.677 11.0833 171.338 11.0237 170.907 11.0237C170.357 11.0237 169.833 11.1599 169.333 11.4325C168.843 11.705 168.441 12.1138 168.128 12.6589C167.823 13.204 167.671 13.8854 167.671 14.703C167.671 15.9294 167.988 16.8791 168.623 17.5519C169.266 18.2247 170.124 18.5612 171.199 18.5612C171.749 18.5612 172.205 18.5058 172.569 18.3951C172.933 18.2758 173.221 18.1566 173.432 18.0374C173.601 17.9437 173.728 17.9224 173.813 17.9735C173.906 18.0161 173.978 18.097 174.029 18.2162L174.955 20.3242C175.048 20.5456 174.997 20.7032 174.803 20.7969C174.49 20.9587 173.974 21.1418 173.254 21.3462C172.535 21.5506 171.647 21.6528 170.59 21.6528C168.466 21.6528 166.77 21.0864 165.501 19.9537C164.232 18.8124 163.598 17.109 163.598 14.8435C163.598 13.3956 163.89 12.1564 164.473 11.1259C165.057 10.0953 165.886 9.30751 166.961 8.76243C168.035 8.20883 169.304 7.93203 170.767 7.93203Z" fill="#4E61F6"/>
</svg>
